<svg width="1920" height="1080" viewBox="0 0 1920 1080" fill="none" xmlns="http://www.w3.org/2000/svg">
<g clip-path="url(#clip0)">
<rect width="1920" height="1080" fill="#221A75"/>
<rect width="830" height="740" transform="translate(300 -102)" fill="#221A75"/>
<circle cx="698.5" cy="561.5" r="1.5" fill="white"/>
<circle cx="910.5" cy="451.5" r="3.5" fill="white"/>
<circle cx="1006.5" cy="732.5" r="1.5" fill="white"/>
<path d="M261 300.5C261 301.328 260.328 302 259.5 302C258.672 302 258 301.328 258 300.5C258 299.672 258.672 299 259.5 299C260.328 299 261 299.672 261 300.5Z" fill="white"/>
<path d="M131 318.5C131 319.328 130.328 320 129.5 320C128.672 320 128 319.328 128 318.5C128 317.672 128.672 317 129.5 317C130.328 317 131 317.672 131 318.5Z" fill="white"/>
<circle cx="935.5" cy="561.5" r="1.5" fill="white"/>
<circle cx="1128.5" cy="497.5" r="1.5" fill="white"/>
<circle cx="696.5" cy="683.5" r="3.5" fill="white"/>
<circle cx="915.5" cy="654.5" r="1.5" fill="white"/>
<path d="M824 215C824 216.933 822.433 218.5 820.5 218.5C818.567 218.5 817 216.933 817 215C817 213.067 818.567 211.5 820.5 211.5C822.433 211.5 824 213.067 824 215Z" fill="white"/>
<circle cx="371.5" cy="316.5" r="1.5" fill="white"/>
<circle cx="1078.5" cy="354.5" r="1.5" fill="white"/>
<circle cx="728.5" cy="428.5" r="1.5" fill="white"/>
<circle cx="158.5" cy="562.5" r="3.5" fill="white"/>
<circle cx="151.5" cy="74.5" r="3.5" fill="white"/>
<path d="M12 527.5C12 528.328 11.3284 529 10.5 529C9.67157 529 9 528.328 9 527.5C9 526.672 9.67157 526 10.5 526C11.3284 526 12 526.672 12 527.5Z" fill="white"/>
<circle cx="192.5" cy="395.5" r="1.5" fill="white"/>
<circle cx="329.5" cy="415.5" r="1.5" fill="white"/>
<circle cx="1258.5" cy="204.5" r="1.5" fill="white"/>
<circle cx="1173.5" cy="627.5" r="1.5" fill="white"/>
<circle cx="1246.5" cy="382.5" r="1.5" fill="white"/>
<circle cx="1478.5" cy="384.5" r="1.5" fill="white"/>
<circle cx="456.5" cy="31.5" r="3.5" fill="white"/>
<circle cx="1340.5" cy="515.5" r="3.5" fill="white"/>
<circle cx="1578.5" cy="13.5" r="3.5" fill="white"/>
<circle cx="1103.5" cy="202.5" r="1.5" fill="white"/>
<circle cx="1858.5" cy="673.5" r="1.5" fill="white"/>
<circle cx="1557.5" cy="264.5" r="1.5" fill="white"/>
<circle cx="1322.5" cy="26.5" r="1.5" fill="white"/>
<circle cx="1395.5" cy="249.5" r="1.5" fill="white"/>
<circle cx="1619.5" cy="505.5" r="1.5" fill="white"/>
<circle cx="1828.5" cy="536.5" r="1.5" fill="white"/>
<circle cx="15.5" cy="374.5" r="3.5" fill="white"/>
<circle cx="528.5" cy="466.5" r="1.5" fill="white"/>
<circle cx="341.5" cy="490.5" r="1.5" fill="white"/>
<circle cx="242.5" cy="584.5" r="1.5" fill="white"/>
<circle cx="626.5" cy="447.5" r="3.5" fill="white"/>
<circle cx="488.5" cy="362.5" r="1.5" fill="white"/>
<circle cx="797.5" cy="536.5" r="1.5" fill="white"/>
<circle cx="1842.5" cy="423.5" r="3.5" fill="white"/>
<circle cx="979.5" cy="264.5" r="3.5" fill="white"/>
<circle cx="904.5" cy="324.5" r="1.5" fill="white"/>
<circle cx="942.5" cy="219.5" r="1.5" fill="white"/>
<circle cx="882.5" cy="65.5" r="1.5" fill="white"/>
<circle cx="715.5" cy="289.5" r="1.5" fill="white"/>
<circle cx="587.5" cy="74.5" r="1.5" fill="white"/>
<circle cx="712.5" cy="86.5" r="1.5" fill="white"/>
<circle cx="672.5" cy="173.5" r="1.5" fill="white"/>
<circle cx="590.5" cy="297.5" r="1.5" fill="white"/>
<circle cx="491.5" cy="286.5" r="1.5" fill="white"/>
<circle cx="752.5" cy="62.5" r="1.5" fill="white"/>
<g filter="url(#filter0_d)">
<circle cx="687.794" cy="217.939" r="252.5" fill="#E3E1F6"/>
<path opacity="0.62" d="M781.366 452.461C719.167 477.278 649.657 476.37 588.128 449.937C526.598 423.503 478.089 373.71 453.273 311.511C428.456 249.312 429.364 179.802 455.797 118.272C482.23 56.7429 532.023 8.23404 594.222 -16.5828L687.794 217.939L781.366 452.461Z" fill="#B7C1D7"/>
<path d="M797.419 445.317C770.339 456.014 741.129 460.543 711.457 458.644C681.784 456.746 652.231 448.458 624.483 434.253C596.736 420.048 571.338 400.205 549.739 375.856C528.141 351.507 510.765 323.13 498.604 292.344C486.443 261.558 479.735 228.967 478.863 196.431C477.991 163.895 482.972 132.052 493.521 102.719C504.07 73.3861 519.981 47.1383 540.346 25.4743C560.711 3.81024 585.131 -12.8458 612.211 -23.5429L704.815 210.887L797.419 445.317Z" fill="#E3E1F6"/>
<circle cx="570.294" cy="174.439" r="44" fill="#B7C1D7"/>
<circle cx="707.294" cy="87.4391" r="36" fill="#B7C1D7"/>
<circle cx="835.294" cy="335.439" r="7" fill="#B7C1D7"/>
<circle cx="761.294" cy="334.439" r="7" fill="#B7C1D7"/>
<circle cx="777.794" cy="248.939" r="21.5" fill="#B7C1D7"/>
<circle cx="795.294" cy="183.439" r="14" fill="#B7C1D7"/>
<circle cx="905.294" cy="181.439" r="20" fill="#B7C1D7"/>
<circle cx="610.294" cy="40.4391" r="17" fill="#B7C1D7"/>
<circle cx="642.794" cy="355.939" r="28.5" fill="#B7C1D7"/>
</g>
<g filter="url(#filter1_d)">
<rect x="51" y="268" width="570" height="93" fill="#3A1771"/>
<rect x="133.571" y="225.787" width="442.016" height="90.4915" fill="#2B046B"/>
<circle cx="130.188" cy="225.188" r="91.1876" fill="#3A1771"/>
<circle cx="133.5" cy="232.5" r="86.5" fill="#2B046B"/>
<ellipse cx="43.4273" cy="311.77" rx="57.4273" ry="49.7703" fill="#3A1771"/>
<ellipse cx="50.5" cy="312.5" rx="55.5" ry="44.5" fill="#2B046B"/>
<ellipse cx="331.654" cy="166.139" rx="141.654" ry="153.139" fill="#3A1771"/>
<ellipse cx="332" cy="178.5" rx="138" ry="147.5" fill="#2B046B"/>
<circle cx="531.733" cy="225.091" r="91.1876" fill="#3A1771"/>
<ellipse cx="526.5" cy="237" rx="89.5" ry="91" fill="#2B046B"/>
<ellipse cx="622.573" cy="311.058" rx="57.4273" ry="49.7703" fill="#3A1771"/>
<ellipse cx="615.5" cy="312.5" rx="53.5" ry="44.5" fill="#2B046B"/>
<rect x="51" y="288" width="570" height="68" fill="#2B046B"/>
<circle cx="61.5" cy="68.5" r="1.5" fill="white"/>
</g>
<g filter="url(#filter2_d)">
<ellipse cx="267.5" cy="360" rx="49.5" ry="54" fill="#3D1978"/>
<ellipse cx="267.5" cy="358.5" rx="49.5" ry="52.5" fill="#524FFF" fill-opacity="0.79"/>
<ellipse cx="206" cy="372" rx="27" ry="26" fill="#3D1978"/>
<ellipse cx="206" cy="372" rx="27" ry="26" fill="#524FFF" fill-opacity="0.79"/>
<ellipse cx="209.5" cy="373.5" rx="28.5" ry="24.5" fill="#3D1978"/>
<ellipse cx="354.5" cy="350.5" rx="67.5" ry="70.5" fill="#3D1978"/>
<ellipse cx="354.5" cy="350.5" rx="67.5" ry="70.5" fill="#524FFF" fill-opacity="0.79"/>
<ellipse cx="269.5" cy="363.5" rx="51.5" ry="50.5" fill="#3D1978"/>
<ellipse cx="428.5" cy="359.5" rx="34.5" ry="32.5" fill="#3D1978"/>
<ellipse cx="428.5" cy="359.5" rx="34.5" ry="32.5" fill="#524FFF" fill-opacity="0.79"/>
<circle cx="354.5" cy="353.5" r="67.5" fill="#3D1978"/>
<ellipse cx="426.5" cy="361.5" rx="34.5" ry="32.5" fill="#3D1978"/>
</g>
<g filter="url(#filter3_d)">
<ellipse cx="1559" cy="818" rx="226" ry="191" fill="#3D1978"/>
<rect x="-14" y="953" width="1923" height="223" fill="#3D1978"/>
<path d="M1777.3 867.434C1785.28 842.266 1787.08 815.984 1782.59 790.205C1778.11 764.425 1767.43 739.695 1751.21 717.534C1734.99 695.374 1713.58 676.252 1688.29 661.345C1663.01 646.438 1634.38 636.061 1604.17 630.854C1573.96 625.646 1542.81 625.717 1512.63 631.063C1482.46 636.408 1453.9 646.916 1428.71 661.938C1403.51 676.96 1382.23 696.179 1366.15 718.414C1350.08 740.648 1339.55 765.427 1335.23 791.226L1559 818L1777.3 867.434Z" fill="#524FFF" fill-opacity="0.44"/>
<ellipse cx="1555.5" cy="834.5" rx="221.5" ry="179.5" transform="rotate(180 1555.5 834.5)" fill="#3D1978"/>
<ellipse cx="1234" cy="915.5" rx="170" ry="158.5" fill="#3D1978"/>
<path d="M1404 915.5C1404 873.463 1386.09 833.148 1354.21 803.424C1322.33 773.699 1279.09 757 1234 757C1188.91 757 1145.67 773.699 1113.79 803.424C1081.91 833.148 1064 873.463 1064 915.5L1234 915.5H1404Z" fill="#524FFF" fill-opacity="0.45"/>
<ellipse cx="1241.5" cy="930.5" rx="177.5" ry="151.5" fill="#3D1978"/>
<ellipse cx="1060" cy="1001" rx="100" ry="132" fill="#3D1978"/>
<path d="M1160 1001C1160 965.991 1149.46 932.417 1130.71 907.662C1111.96 882.907 1086.52 869 1060 869C1033.48 869 1008.04 882.907 989.289 907.662C970.536 932.417 960 965.991 960 1001L1060 1001H1160Z" fill="#524FFF" fill-opacity="0.45"/>
<ellipse cx="1060" cy="1006.5" rx="100" ry="129.5" fill="#3D1978"/>
<ellipse cx="966.5" cy="1032" rx="108.5" ry="134" fill="#3D1978"/>
<ellipse cx="966.5" cy="1032" rx="108.5" ry="134" fill="#524FFF" fill-opacity="0.45"/>
<ellipse cx="966.5" cy="1039" rx="115.5" ry="127" fill="#3D1978"/>
<ellipse cx="1785" cy="992" rx="161" ry="141" fill="#3D1978"/>
<path d="M1946 992C1946 954.604 1929.04 918.741 1898.84 892.298C1868.65 865.855 1827.7 851 1785 851C1742.3 851 1701.35 865.855 1671.16 892.298C1640.96 918.741 1624 954.604 1624 992L1785 992H1946Z" fill="#524FFF" fill-opacity="0.45"/>
<ellipse cx="1785.5" cy="996.5" rx="160.5" ry="136.5" fill="#3D1978"/>
<ellipse cx="768.5" cy="946" rx="159.5" ry="158" fill="#3D1978"/>
<ellipse cx="768.5" cy="946" rx="159.5" ry="158" fill="#524FFF" fill-opacity="0.45"/>
<ellipse cx="768.5" cy="961" rx="159.5" ry="158" fill="#3D1978"/>
<ellipse cx="539.5" cy="977" rx="189.5" ry="189" fill="#3D1978"/>
<ellipse cx="539.5" cy="977" rx="189.5" ry="189" fill="#524FFF" fill-opacity="0.45"/>
<ellipse cx="519.5" cy="989.5" rx="209.5" ry="186.5" fill="#3D1978"/>
<ellipse cx="420" cy="793" rx="199" ry="189" fill="#3D1978"/>
<ellipse cx="420" cy="793" rx="199" ry="189" fill="#524FFF" fill-opacity="0.45"/>
<ellipse cx="416" cy="813" rx="194" ry="189" fill="#3D1978"/>
<ellipse cx="178.123" cy="856.955" rx="166" ry="185.5" transform="rotate(-12.4638 178.123 856.955)" fill="#3D1978"/>
<ellipse cx="178.123" cy="856.955" rx="166" ry="185.5" transform="rotate(-12.4638 178.123 856.955)" fill="#524FFF" fill-opacity="0.45"/>
<ellipse cx="182.123" cy="872.955" rx="166" ry="185.5" transform="rotate(-12.4638 182.123 872.955)" fill="#3D1978"/>
<ellipse cx="56.1796" cy="982.953" rx="134.5" ry="155" transform="rotate(-21.0392 56.1796 982.953)" fill="#3D1978"/>
<ellipse cx="56.1796" cy="982.953" rx="134.5" ry="155" transform="rotate(-21.0392 56.1796 982.953)" fill="#524FFF" fill-opacity="0.45"/>
<ellipse cx="67.1796" cy="994.953" rx="134.5" ry="155" transform="rotate(-21.0392 67.1796 994.953)" fill="#3D1978"/>
</g>
<g filter="url(#filter4_d)">
<ellipse cx="1681.5" cy="1216" rx="159.5" ry="158" fill="#221A75"/>
<ellipse cx="471.5" cy="1226.5" rx="189.5" ry="184.5" fill="#221A75"/>
<ellipse cx="1816.49" cy="1173.45" rx="166.468" ry="184.5" transform="rotate(22.0147 1816.49 1173.45)" fill="#221A75"/>
<ellipse cx="1816.49" cy="1173.45" rx="166.468" ry="184.5" transform="rotate(22.0147 1816.49 1173.45)" fill="#524FFF" fill-opacity="0.45"/>
<ellipse cx="1807.49" cy="1188.45" rx="166.468" ry="184.5" transform="rotate(22.0147 1807.49 1188.45)" fill="#221A75"/>
<ellipse cx="1491" cy="1013" rx="226" ry="191" fill="#221A75"/>
<ellipse cx="1491" cy="1013" rx="226" ry="191" fill="#524FFF" fill-opacity="0.45"/>
<ellipse cx="1487" cy="1039" rx="226" ry="191" fill="#221A75"/>
<ellipse cx="1166" cy="1110.5" rx="170" ry="158.5" fill="#221A75"/>
<ellipse cx="1166" cy="1110.5" rx="170" ry="158.5" fill="#524FFF" fill-opacity="0.45"/>
<ellipse cx="1166" cy="1134.5" rx="170" ry="158.5" fill="#221A75"/>
<ellipse cx="936.5" cy="1212" rx="164.5" ry="199" fill="#221A75"/>
<ellipse cx="936.5" cy="1212" rx="164.5" ry="199" fill="#524FFF" fill-opacity="0.45"/>
<ellipse cx="935.5" cy="1221" rx="172.5" ry="190" fill="#221A75"/>
<ellipse cx="700.5" cy="1141" rx="159.5" ry="158" fill="#221A75"/>
<ellipse cx="700.5" cy="1141" rx="159.5" ry="158" fill="#524FFF" fill-opacity="0.45"/>
<ellipse cx="700.5" cy="1156" rx="164.5" ry="158" fill="#221A75"/>
<ellipse cx="372" cy="1013" rx="219" ry="198" fill="#221A75"/>
<ellipse cx="372" cy="1013" rx="219" ry="198" fill="#524FFF" fill-opacity="0.45"/>
<ellipse cx="367" cy="1037.5" rx="214" ry="193.5" fill="#221A75"/>
<ellipse cx="96" cy="1094.5" rx="166" ry="185.5" fill="#221A75"/>
<ellipse cx="96" cy="1094.5" rx="166" ry="185.5" fill="#524FFF" fill-opacity="0.45"/>
<ellipse cx="96" cy="1115.5" rx="166" ry="185.5" fill="#221A75"/>
</g>
<g filter="url(#filter5_d)">
<ellipse cx="1151.5" cy="178.5" rx="19.5" ry="18.5" fill="#524FFF"/>
<ellipse cx="1151.5" cy="178.5" rx="19.5" ry="18.5" fill="url(#paint0_linear)"/>
<ellipse cx="1151.5" cy="179.5" rx="19.5" ry="17.5" fill="#3D1185"/>
<ellipse cx="1229.5" cy="155" rx="49.5" ry="54" fill="#3D1185"/>
<ellipse cx="1229.5" cy="155" rx="49.5" ry="54" fill="#524FFF" fill-opacity="0.79"/>
<ellipse cx="1316.5" cy="145.5" rx="67.5" ry="70.5" fill="#3D1185"/>
<ellipse cx="1316.5" cy="145.5" rx="67.5" ry="70.5" fill="#524FFF" fill-opacity="0.79"/>
<ellipse cx="1229.5" cy="159" rx="49.5" ry="50" fill="#3D1185"/>
<ellipse cx="1390.5" cy="154.5" rx="34.5" ry="32.5" fill="#3D1185"/>
<ellipse cx="1390.5" cy="154.5" rx="34.5" ry="32.5" fill="#524FFF" fill-opacity="0.79"/>
<ellipse cx="1390.5" cy="157" rx="34.5" ry="30" fill="#3D1185"/>
<ellipse cx="1316.5" cy="150" rx="67.5" ry="66" fill="#3D1185"/>
</g>
<g filter="url(#filter6_d)">
<ellipse cx="1621.5" cy="218" rx="112.5" ry="104" fill="#3D1978"/>
<ellipse cx="1621.5" cy="218" rx="112.5" ry="104" fill="#524FFF" fill-opacity="0.35"/>
<ellipse cx="1626" cy="224.5" rx="106" ry="97.5" fill="#3D1978"/>
<ellipse cx="1734.5" cy="252.5" rx="112.5" ry="76.5" fill="#3D1978"/>
<ellipse cx="1687" cy="139.5" rx="95" ry="111.5" fill="#3D1978"/>
<ellipse cx="1687" cy="139.5" rx="95" ry="111.5" fill="#524FFF" fill-opacity="0.3"/>
<ellipse cx="1687" cy="152.5" rx="95" ry="111.5" fill="#3D1978"/>
<ellipse cx="1824" cy="134.5" rx="95" ry="111.5" fill="#3D1978"/>
<ellipse cx="1824" cy="134.5" rx="95" ry="111.5" fill="#524FFF" fill-opacity="0.35"/>
<ellipse cx="1857.5" cy="211.5" rx="123.5" ry="92.5" fill="#3D1978"/>
<ellipse cx="1857.5" cy="211.5" rx="123.5" ry="92.5" fill="#524FFF" fill-opacity="0.45"/>
<ellipse cx="1821" cy="143.5" rx="95" ry="111.5" fill="#3D1978"/>
<ellipse cx="1850.5" cy="213.5" rx="123.5" ry="92.5" fill="#3D1978"/>
</g>
<g filter="url(#filter7_d)">
<ellipse cx="1813" cy="305.5" rx="63" ry="53.5" fill="#2B046B"/>
<ellipse cx="1813" cy="305.5" rx="63" ry="53.5" fill="#524FFF" fill-opacity="0.38"/>
<ellipse cx="1810.5" cy="310" rx="60.5" ry="49" fill="#2B046B"/>
<ellipse cx="1724" cy="335" rx="61" ry="53" fill="#2B046B"/>
<ellipse cx="1694.5" cy="276" rx="70.5" ry="76" fill="#2B046B"/>
<ellipse cx="1694.5" cy="276" rx="70.5" ry="76" fill="#524FFF" fill-opacity="0.38"/>
<ellipse cx="1699.5" cy="283" rx="70.5" ry="76" fill="#2B046B"/>
<ellipse cx="1783" cy="257" rx="51" ry="50" fill="#2B046B"/>
<ellipse cx="1783" cy="257" rx="51" ry="50" fill="#524FFF" fill-opacity="0.38"/>
<ellipse cx="1781" cy="265" rx="51" ry="50" fill="#2B046B"/>
<ellipse cx="1641" cy="310.5" rx="61" ry="51.5" fill="#2B046B"/>
<ellipse cx="1641" cy="310.5" rx="61" ry="51.5" fill="#524FFF" fill-opacity="0.38"/>
<ellipse cx="1653.5" cy="311.5" rx="65.5" ry="48.5" fill="#2B046B"/>
</g>
</g>
<defs>
<filter id="filter0_d" x="221" y="-239" width="952" height="938" filterUnits="userSpaceOnUse" color-interpolation-filters="sRGB">
<feFlood flood-opacity="0" result="BackgroundImageFix"/>
<feColorMatrix in="SourceAlpha" type="matrix" values="0 0 0 0 0 0 0 0 0 0 0 0 0 0 0 0 0 0 127 0"/>
<feOffset dy="4"/>
<feGaussianBlur stdDeviation="56"/>
<feColorMatrix type="matrix" values="0 0 0 0 0.890196 0 0 0 0 0.882353 0 0 0 0 0.964706 0 0 0 1 0"/>
<feBlend mode="normal" in2="BackgroundImageFix" result="effect1_dropShadow"/>
<feBlend mode="normal" in="SourceGraphic" in2="effect1_dropShadow" result="shape"/>
</filter>
<filter id="filter1_d" x="-22" y="13" width="713" height="395" filterUnits="userSpaceOnUse" color-interpolation-filters="sRGB">
<feFlood flood-opacity="0" result="BackgroundImageFix"/>
<feColorMatrix in="SourceAlpha" type="matrix" values="0 0 0 0 0 0 0 0 0 0 0 0 0 0 0 0 0 0 127 0"/>
<feOffset dy="20"/>
<feGaussianBlur stdDeviation="2"/>
<feColorMatrix type="matrix" values="0 0 0 0 0 0 0 0 0 0 0 0 0 0 0 0 0 0 0.3 0"/>
<feBlend mode="normal" in2="BackgroundImageFix" result="effect1_dropShadow"/>
<feBlend mode="normal" in="SourceGraphic" in2="effect1_dropShadow" result="shape"/>
</filter>
<filter id="filter2_d" x="171" y="280" width="303" height="188" filterUnits="userSpaceOnUse" color-interpolation-filters="sRGB">
<feFlood flood-opacity="0" result="BackgroundImageFix"/>
<feColorMatrix in="SourceAlpha" type="matrix" values="0 0 0 0 0 0 0 0 0 0 0 0 0 0 0 0 0 0 127 0"/>
<feOffset dy="20"/>
<feGaussianBlur stdDeviation="2"/>
<feColorMatrix type="matrix" values="0 0 0 0 0 0 0 0 0 0 0 0 0 0 0 0 0 0 0.3 0"/>
<feBlend mode="normal" in2="BackgroundImageFix" result="effect1_dropShadow"/>
<feBlend mode="normal" in="SourceGraphic" in2="effect1_dropShadow" result="shape"/>
</filter>
<filter id="filter3_d" x="-100" y="545" width="2063" height="634" filterUnits="userSpaceOnUse" color-interpolation-filters="sRGB">
<feFlood flood-opacity="0" result="BackgroundImageFix"/>
<feColorMatrix in="SourceAlpha" type="matrix" values="0 0 0 0 0 0 0 0 0 0 0 0 0 0 0 0 0 0 127 0"/>
<feOffset dy="-20"/>
<feGaussianBlur stdDeviation="2"/>
<feColorMatrix type="matrix" values="0 0 0 0 0 0 0 0 0 0 0 0 0 0 0 0 0 0 0.3 0"/>
<feBlend mode="normal" in2="BackgroundImageFix" result="effect1_dropShadow"/>
<feBlend mode="normal" in="SourceGraphic" in2="effect1_dropShadow" result="shape"/>
</filter>
<filter id="filter4_d" x="-84" y="733" width="2088" height="683" filterUnits="userSpaceOnUse" color-interpolation-filters="sRGB">
<feFlood flood-opacity="0" result="BackgroundImageFix"/>
<feColorMatrix in="SourceAlpha" type="matrix" values="0 0 0 0 0 0 0 0 0 0 0 0 0 0 0 0 0 0 127 0"/>
<feOffset dy="-20"/>
<feGaussianBlur stdDeviation="2"/>
<feColorMatrix type="matrix" values="0 0 0 0 0 0 0 0 0 0 0 0 0 0 0 0 0 0 0.3 0"/>
<feBlend mode="normal" in2="BackgroundImageFix" result="effect1_dropShadow"/>
<feBlend mode="normal" in="SourceGraphic" in2="effect1_dropShadow" result="shape"/>
</filter>
<filter id="filter5_d" x="1126" y="48" width="305" height="178" filterUnits="userSpaceOnUse" color-interpolation-filters="sRGB">
<feFlood flood-opacity="0" result="BackgroundImageFix"/>
<feColorMatrix in="SourceAlpha" type="matrix" values="0 0 0 0 0 0 0 0 0 0 0 0 0 0 0 0 0 0 127 0"/>
<feOffset dy="-9"/>
<feGaussianBlur stdDeviation="2"/>
<feColorMatrix type="matrix" values="0 0 0 0 0 0 0 0 0 0 0 0 0 0 0 0 0 0 0.3 0"/>
<feBlend mode="normal" in2="BackgroundImageFix" result="effect1_dropShadow"/>
<feBlend mode="normal" in="SourceGraphic" in2="effect1_dropShadow" result="shape"/>
</filter>
<filter id="filter6_d" x="1491" y="20" width="513" height="362" filterUnits="userSpaceOnUse" color-interpolation-filters="sRGB">
<feFlood flood-opacity="0" result="BackgroundImageFix"/>
<feColorMatrix in="SourceAlpha" type="matrix" values="0 0 0 0 0 0 0 0 0 0 0 0 0 0 0 0 0 0 127 0"/>
<feOffset dy="21"/>
<feGaussianBlur stdDeviation="2"/>
<feColorMatrix type="matrix" values="0 0 0 0 0 0 0 0 0 0 0 0 0 0 0 0 0 0 0.3 0"/>
<feBlend mode="normal" in2="BackgroundImageFix" result="effect1_dropShadow"/>
<feBlend mode="normal" in="SourceGraphic" in2="effect1_dropShadow" result="shape"/>
</filter>
<filter id="filter7_d" x="1566" y="196" width="321" height="239" filterUnits="userSpaceOnUse" color-interpolation-filters="sRGB">
<feFlood flood-opacity="0" result="BackgroundImageFix"/>
<feColorMatrix in="SourceAlpha" type="matrix" values="0 0 0 0 0 0 0 0 0 0 0 0 0 0 0 0 0 0 127 0"/>
<feOffset dy="20"/>
<feGaussianBlur stdDeviation="2"/>
<feColorMatrix type="matrix" values="0 0 0 0 0 0 0 0 0 0 0 0 0 0 0 0 0 0 0.3 0"/>
<feBlend mode="normal" in2="BackgroundImageFix" result="effect1_dropShadow"/>
<feBlend mode="normal" in="SourceGraphic" in2="effect1_dropShadow" result="shape"/>
</filter>
<linearGradient id="paint0_linear" x1="1151.5" y1="160" x2="1151.5" y2="197" gradientUnits="userSpaceOnUse">
<stop stop-color="#524FFF" stop-opacity="0.22"/>
<stop offset="0.390525" stop-color="#3F1486" stop-opacity="0.133333"/>
<stop offset="0.390625" stop-color="#524FFF" stop-opacity="0.02"/>
</linearGradient>
<clipPath id="clip0">
<rect width="1920" height="1080" fill="white"/>
</clipPath>
</defs>
</svg>
