<svg width="2400" height="1536" viewBox="0 0 2400 1536" fill="none" xmlns="http://www.w3.org/2000/svg">
<rect width="2400" height="1536" fill="#221A75"/>
<rect x="157" y="1286" width="100" height="100" fill="#3D1978"/>
<rect x="478" y="1255" width="100" height="100" fill="#FFC412"/>
<rect x="902" y="229" width="100" height="100" fill="#3D1978"/>
<rect x="1546" y="1205" width="100" height="100" fill="#3D1978"/>
<rect x="528" y="765" width="100" height="100" fill="#3D1978"/>
<rect x="1692" y="715" width="100" height="100" fill="#FFC412"/>
<rect x="952" y="1385" width="100" height="100" fill="#FFC412"/>
<rect x="1249" y="615" width="100" height="100" fill="#FFC412"/>
<rect x="578" y="354" width="100" height="100" fill="#FFC412"/>
<rect x="2184" y="665" width="100" height="100" fill="#3D1978"/>
<rect x="2184" y="129" width="100" height="100" fill="#524FFF"/>
<rect x="852" y="1007" width="100" height="100" fill="#3D1978"/>
<rect x="207" y="956" width="100" height="100" fill="#524FFF"/>
<rect x="1887" y="989" width="397" height="397" fill="#FFC412"/>
<rect x="1447" y="57" width="397" height="397" fill="#3D1978"/>
<rect x="84" y="45" width="397" height="397" fill="#3D1978"/>
<rect opacity="0.7" width="2400" height="1536" fill="#221A75"/>
</svg>
