<?xml version="1.0" standalone="no"?>
<!DOCTYPE svg PUBLIC "-//W3C//DTD SVG 20010904//EN"
 "http://www.w3.org/TR/2001/REC-SVG-20010904/DTD/svg10.dtd">
<svg version="1.0" xmlns="http://www.w3.org/2000/svg"
 width="186.000000pt" height="186.000000pt" viewBox="0 0 186.000000 186.000000"
 preserveAspectRatio="xMidYMid meet">
<metadata>
Created by potrace 1.11, written by Peter Selinger 2001-2013
</metadata>
<g transform="translate(0.000000,186.000000) scale(0.100000,-0.100000)"
fill="#000000" stroke="none">
<path d="M63 1825 c-65 -28 -64 -9 -61 -686 l3 -611 33 -29 32 -29 155 0 155
0 0 -170 0 -170 119 0 118 0 7 -30 c3 -17 17 -42 30 -55 l25 -25 556 0 c362 0
563 4 576 10 49 27 49 26 49 676 l0 606 -34 34 -34 34 -104 0 -105 0 -32 50
c-47 73 -145 156 -233 198 l-77 37 0 43 c-1 58 -25 101 -66 118 -50 20 -1064
20 -1112 -1z m1107 -230 c92 -29 171 -74 233 -134 120 -113 177 -243 177 -403
0 -58 -6 -116 -16 -149 -56 -189 -205 -338 -393 -393 -42 -12 -100 -16 -243
-16 l-188 0 0 -145 0 -145 -135 0 -135 0 0 706 0 706 323 -4 c271 -4 331 -8
377 -23z m-790 -440 l0 -455 -69 0 c-50 0 -74 4 -85 16 -14 14 -16 67 -16 436
0 492 -7 458 102 458 l68 0 0 -455z m1249 -897 c-19 -16 -53 -18 -388 -18
-435 0 -411 -6 -411 101 l0 69 138 0 c164 0 235 15 352 72 117 58 220 160 278
277 23 46 43 91 44 100 2 9 4 -119 6 -284 2 -296 2 -300 -19 -317z"/>
<path d="M740 1055 l0 -287 183 4 c180 3 183 3 235 33 90 49 142 129 149 230
9 111 -54 224 -153 275 -46 23 -60 25 -231 28 l-183 4 0 -287z m470 69 c35
-91 -22 -219 -113 -253 -16 -6 -82 -11 -148 -11 l-119 0 0 133 c0 90 4 137 12
145 8 8 64 12 185 12 l173 0 10 -26z"/>
</g>
</svg>
